<svg xmlns="http://www.w3.org/2000/svg" width="16" height="16" viewBox="0 0 16 16">
  <path fill="#073358" fill-rule="nonzero" d="M12.7 13.34c.7 0 1.267.58 1.267 1.296 0 .716-.567 1.296-1.267 1.296s-1.267-.58-1.267-1.296c0-.715.567-1.295 1.267-1.295zm-6.183 0c.7 0 1.266.58 1.266 1.296 0 .716-.567 1.296-1.266 1.296-.7 0-1.267-.58-1.267-1.296 0-.715.567-1.295 1.267-1.295zM3.117.969a.62.62 0 01.588.41l.026.095.366 1.711h11.286c.135 0 .26.038.362.11l.072.062.064.074c.088.12.135.267.138.422l-.005.119-1.333 5.997a.62.62 0 01-.516.5l-.098.007-8.394-.001.224 1.045H13.8c.287 0 .524.186.604.448l.023.101.006.097c0 .328-.23.593-.538.638l-.095.007H5.383a.62.62 0 01-.588-.41l-.026-.095-2.15-10.046H.633a.627.627 0 01-.604-.447L.007 1.71 0 1.614c0-.329.23-.594.538-.639L.633.968h2.484z"/>
</svg>
